<?xml version="1.0" encoding="utf-8"?>
<!-- Generator: Adobe Illustrator 16.0.4, SVG Export Plug-In . SVG Version: 6.00 Build 0)  -->
<!DOCTYPE svg PUBLIC "-//W3C//DTD SVG 1.1//EN" "http://www.w3.org/Graphics/SVG/1.1/DTD/svg11.dtd">
<svg version="1.1" id="Layer_1" xmlns="http://www.w3.org/2000/svg" xmlns:xlink="http://www.w3.org/1999/xlink" x="0px" y="0px"
	 width="120px" height="120px" viewBox="0 0 120 120" enable-background="new 0 0 120 120" xml:space="preserve">
<g>
	<path fill="#FFFFFF" d="M60,7c29.2,0,53,23.8,53,53c0,29.2-23.8,53-53,53C30.8,113,7,89.2,7,60C7,30.8,30.8,7,60,7 M60,0
		C26.9,0,0,26.9,0,60c0,33.1,26.9,60,60,60c33.1,0,60-26.9,60-60C120,26.9,93.1,0,60,0L60,0z"/>
</g>
<polygon fill-rule="evenodd" clip-rule="evenodd" fill="#FFFFFF" points="95,57 64,57 64,26 57,26 57,57 26,57 26,64 57,64 57,95 
	64,95 64,64 95,64 "/>
<g>
</g>
<g>
</g>
<g>
</g>
<g>
</g>
<g>
</g>
<g>
</g>
</svg>
