<?xml version="1.0" encoding="utf-8"?>
<!-- Generator: Adobe Illustrator 16.0.4, SVG Export Plug-In . SVG Version: 6.00 Build 0)  -->
<!DOCTYPE svg PUBLIC "-//W3C//DTD SVG 1.1//EN" "http://www.w3.org/Graphics/SVG/1.1/DTD/svg11.dtd">
<svg version="1.1" id="Layer_1" xmlns="http://www.w3.org/2000/svg" xmlns:xlink="http://www.w3.org/1999/xlink" x="0px" y="0px"
	 width="24.9px" height="24.9px" viewBox="0 0 24.9 24.9" enable-background="new 0 0 24.9 24.9" xml:space="preserve">
<g>
	<polygon id="Arrow" fill="#FFFFFF" points="7.8,12.6 13.9,18.7 16,16.6 12.1,12.6 16,8.8 13.9,6.6 7.8,12.6 	"/>
	<g>
		<path fill="#FFFFFF" d="M12.5,0c6.9,0,12.5,5.6,12.5,12.5c0,6.9-5.6,12.5-12.5,12.5C5.6,24.9,0,19.3,0,12.5C0,5.6,5.6,0,12.5,0z
			 M12.5,21.9c5.2,0,9.5-4.2,9.5-9.5S17.7,3,12.5,3C7.2,3,3,7.2,3,12.5S7.2,21.9,12.5,21.9z"/>
	</g>
</g>
<g>
</g>
<g>
</g>
<g>
</g>
<g>
</g>
<g>
</g>
<g>
</g>
</svg>
