<?xml version="1.0" encoding="utf-8"?>
<!-- Generator: Adobe Illustrator 17.0.2, SVG Export Plug-In . SVG Version: 6.00 Build 0)  -->
<!DOCTYPE svg PUBLIC "-//W3C//DTD SVG 1.1//EN" "http://www.w3.org/Graphics/SVG/1.1/DTD/svg11.dtd">
<svg version="1.1" id="Layer_2" xmlns="http://www.w3.org/2000/svg" xmlns:xlink="http://www.w3.org/1999/xlink" x="0px" y="0px"
	 width="75.25px" height="184px" viewBox="1.25 0 75.25 184" enable-background="new 1.25 0 75.25 184" xml:space="preserve">
<path fill="#23A2C5" d="M39.135,37.508c-10.381,0-18.827-8.417-18.827-18.764C20.308,8.408,28.754,0,39.135,0
	c10.366,0,18.799,8.408,18.799,18.744C57.934,29.091,49.501,37.508,39.135,37.508z M39.135,6c-7.073,0-12.827,5.717-12.827,12.744
	c0,7.038,5.754,12.764,12.827,12.764c7.057,0,12.799-5.726,12.799-12.764C51.934,11.717,46.193,6,39.135,6z"/>
<path fill="#23A2C5" d="M48.62,183.666c-3.945,0-7.429-2-9.485-5.035c-2.056,3.035-5.541,5.035-9.485,5.035
	c-6.305,0-11.434-5.109-11.434-11.389v-65.858c-1.709,1.365-3.876,2.183-6.231,2.183c-5.506,0-9.985-4.467-9.985-9.958V54.018
	c0-0.425,0.088-0.828,0.247-1.194c1.165-8.056,7.976-14.019,16.206-14.019H59.8c8.236,0,15.057,5.979,16.219,14.048
	c0.151,0.358,0.234,0.752,0.234,1.165V98.39c0,5.49-4.479,9.957-9.985,9.957c-2.347,0-4.507-0.813-6.213-2.172v66.103
	C60.055,178.557,54.925,183.666,48.62,183.666z M38.084,120.974h2.102c1.657,0,3,1.343,3,3v48.304c0,2.972,2.438,5.389,5.434,5.389
	c2.997,0,5.435-2.417,5.435-5.389V67.28c0-0.255-0.043-0.544-0.107-0.898c-0.158-0.875,0.08-1.774,0.65-2.457
	c0.57-0.682,1.413-1.076,2.302-1.076h2.392c1.657,0,3,1.343,3,3V98.39c0,2.182,1.783,3.957,3.976,3.957
	c2.197,0,3.985-1.775,3.985-3.957V54.851c-0.052-0.181-0.088-0.369-0.105-0.563c-0.487-5.406-4.936-9.482-10.347-9.482H18.455
	c-5.414,0-9.858,4.075-10.338,9.479c-0.019,0.207-0.058,0.408-0.115,0.601v43.76c0,2.183,1.788,3.958,3.985,3.958
	c2.198,0,3.985-1.775,3.985-3.958V65.67c0-0.934,0.435-1.813,1.176-2.382c0.741-0.567,1.704-0.758,2.606-0.515
	c0.249,0.067,0.389,0.077,0.45,0.077h1.16c0.889,0,1.731,0.394,2.302,1.076c0.57,0.682,0.809,1.581,0.651,2.455
	c-0.068,0.38-0.098,0.649-0.098,0.9v104.997c0,2.972,2.438,5.389,5.434,5.389s5.434-2.417,5.434-5.389v-48.304
	C35.084,122.317,36.427,120.974,38.084,120.974z"/>
</svg>
