<?xml version="1.0" encoding="utf-8"?>
<!-- Generator: Adobe Illustrator 16.0.4, SVG Export Plug-In . SVG Version: 6.00 Build 0)  -->
<!DOCTYPE svg PUBLIC "-//W3C//DTD SVG 1.1//EN" "http://www.w3.org/Graphics/SVG/1.1/DTD/svg11.dtd">
<svg version="1.1" id="Layer_1" xmlns="http://www.w3.org/2000/svg" xmlns:xlink="http://www.w3.org/1999/xlink" x="0px" y="0px"
	 width="22px" height="475px" viewBox="0 0 22 475" enable-background="new 0 0 22 475" xml:space="preserve">
<g>
	<circle fill="#FFFFFF" cx="11" cy="27.5" r="2.5"/>
	<circle fill="#FFFFFF" cx="11" cy="37.5" r="2.5"/>
	<circle fill="#FFFFFF" cx="11" cy="47.5" r="2.5"/>
	<circle fill="#FFFFFF" cx="11" cy="57.5" r="2.5"/>
	<circle fill="#FFFFFF" cx="11" cy="67.5" r="2.5"/>
	<circle fill="#FFFFFF" cx="11" cy="77.5" r="2.5"/>
	<circle fill="#FFFFFF" cx="11" cy="87.5" r="2.5"/>
	<circle fill="#FFFFFF" cx="11" cy="97.5" r="2.5"/>
	<circle fill="#FFFFFF" cx="11" cy="107.5" r="2.5"/>
	<circle fill="#FFFFFF" cx="11" cy="117.5" r="2.5"/>
	<circle fill="#FFFFFF" cx="11" cy="127.5" r="2.5"/>
	<circle fill="#FFFFFF" cx="11" cy="137.5" r="2.5"/>
	<circle fill="#FFFFFF" cx="11" cy="277.5" r="2.5"/>
	<circle fill="#FFFFFF" cx="11" cy="287.5" r="2.5"/>
	<circle fill="#FFFFFF" cx="11" cy="297.5" r="2.5"/>
	<circle fill="#FFFFFF" cx="11" cy="307.5" r="2.5"/>
	<circle fill="#FFFFFF" cx="11" cy="317.5" r="2.5"/>
	<circle fill="#FFFFFF" cx="11" cy="327.5" r="2.5"/>
	<circle fill="#FFFFFF" cx="11" cy="337.5" r="2.5"/>
	<circle fill="#FFFFFF" cx="11" cy="347.5" r="2.5"/>
	<circle fill="#FFFFFF" cx="11" cy="357.5" r="2.5"/>
	<circle fill="#FFFFFF" cx="11" cy="367.5" r="2.5"/>
	<circle fill="#FFFFFF" cx="11" cy="377.5" r="2.5"/>
	<circle fill="#FFFFFF" cx="11" cy="387.5" r="2.5"/>
	<circle fill="#FFFFFF" cx="11" cy="397.5" r="2.5"/>
	<circle fill="#FFFFFF" cx="11" cy="407.5" r="2.5"/>
	<circle fill="#FFFFFF" cx="11" cy="417.5" r="2.5"/>
	<circle fill="#FFFFFF" cx="11" cy="427.5" r="2.5"/>
	<circle fill="#FFFFFF" cx="11" cy="437.5" r="2.5"/>
	<circle fill="#FFFFFF" cx="11" cy="447.5" r="2.5"/>
	<polygon fill="#FFFFFF" points="11,0 0,20 22,20 	"/>
	<polygon fill="#FFFFFF" points="11,475 22,455 0,455 	"/>
</g>
<g>
</g>
<g>
</g>
<g>
</g>
<g>
</g>
<g>
</g>
<g>
</g>
</svg>
