<?xml version="1.0" encoding="utf-8"?>
<!-- Generator: Adobe Illustrator 17.0.2, SVG Export Plug-In . SVG Version: 6.00 Build 0)  -->
<!DOCTYPE svg PUBLIC "-//W3C//DTD SVG 1.1//EN" "http://www.w3.org/Graphics/SVG/1.1/DTD/svg11.dtd">
<svg version="1.1" id="Layer_2" xmlns="http://www.w3.org/2000/svg" xmlns:xlink="http://www.w3.org/1999/xlink" x="0px" y="0px"
	 width="69.5px" height="177.5px" viewBox="0 0 69.5 177.5" enable-background="new 0 0 69.5 177.5" xml:space="preserve">
<g>
	<path fill="#23A2C5" d="M34.137,35c-9.656,0-17.513-7.854-17.513-17.509C16.624,7.846,24.48,0,34.137,0
		c9.642,0,17.487,7.846,17.487,17.491C51.624,27.146,43.78,35,34.137,35z"/>
</g>
<path fill="#23A2C5" d="M68.255,98.136c0,3.841-3.134,6.957-6.985,6.957c-3.85,0-6.976-3.116-6.976-6.957V61.595h-2.392
	c0.082,0.454,0.155,0.924,0.155,1.432v105.997c0,4.639-3.787,8.389-8.435,8.389c-4.656,0-8.434-3.75-8.434-8.389V116.72h-2.102
	v52.304c0,4.639-3.778,8.389-8.434,8.389c-4.666,0-8.434-3.75-8.434-8.389V63.026c0-0.508,0.063-0.978,0.145-1.432h-1.16
	c-0.417,0-0.833-0.073-1.232-0.181v36.976c0,3.841-3.126,6.958-6.985,6.958c-3.85,0-6.985-3.117-6.985-6.958V49.763h0.127
	C0.734,42.932,6.432,37.55,13.453,37.55H54.8c7.03,0,12.719,5.381,13.335,12.213h0.118v48.373H68.255z"/>
</svg>
