<?xml version="1.0" encoding="utf-8"?>
<!-- Generator: Adobe Illustrator 17.0.2, SVG Export Plug-In . SVG Version: 6.00 Build 0)  -->
<!DOCTYPE svg PUBLIC "-//W3C//DTD SVG 1.1//EN" "http://www.w3.org/Graphics/SVG/1.1/DTD/svg11.dtd">
<svg version="1.1" id="Calque_1" xmlns="http://www.w3.org/2000/svg" xmlns:xlink="http://www.w3.org/1999/xlink" x="0px" y="0px"
	 width="85.069px" height="179.616px" viewBox="0 0 85.069 179.616" enable-background="new 0 0 85.069 179.616"
	 xml:space="preserve">
<g>
	<path fill="#23A2C5" d="M42.301,37.116c-10.233,0-18.558-8.321-18.558-18.549C23.743,8.329,32.068,0,42.301,0
		c10.223,0,18.54,8.329,18.54,18.567C60.841,28.795,52.523,37.116,42.301,37.116z M42.301,6c-6.924,0-12.558,5.638-12.558,12.567
		c0,6.919,5.634,12.549,12.558,12.549c6.915,0,12.54-5.629,12.54-12.549C54.841,11.637,49.216,6,42.301,6z"/>
	<path fill="#23A2C5" d="M50.896,179.616c-3.425,0-6.469-1.663-8.364-4.224c-1.892,2.561-4.93,4.224-8.349,4.224
		c-5.732,0-10.395-4.659-10.395-10.387v-46.362H8.655c-0.967,0-1.874-0.466-2.438-1.251s-0.714-1.794-0.404-2.71l5.418-16.026
		c-1.627,0.412-3.433,0.359-5.09-0.194c-4.743-1.646-7.266-6.78-5.656-11.455l12.485-36.979c0.275-1.137,0.668-2.271,1.17-3.375
		c3.116-6.942,10.058-11.437,17.68-11.437h21.438c9.012,0,16.733,6.083,18.831,14.812l12.499,36.995
		c1.604,4.657-0.918,9.791-5.63,11.428c-1.721,0.577-3.507,0.617-5.138,0.202l5.417,16.029c0.31,0.916,0.159,1.925-0.404,2.71
		s-1.471,1.251-2.438,1.251H61.281v46.362C61.281,174.957,56.622,179.616,50.896,179.616z M41.561,116.867h1.938
		c1.657,0,3,1.343,3,3v49.362c0,2.419,1.973,4.387,4.396,4.387c2.418,0,4.386-1.968,4.386-4.387v-49.362c0-1.657,1.343-3,3-3h13.934
		L53.941,62.792c-0.31-0.916-0.159-1.924,0.404-2.709s1.471-1.251,2.438-1.251h1.983c1.286,0,2.43,0.82,2.842,2.039l11.564,34.201
		c0.525,1.562,2.272,2.45,3.85,1.923c1.562-0.542,2.423-2.257,1.888-3.811L66.36,56.04c-0.031-0.093-0.059-0.187-0.08-0.282
		c-1.411-6.075-6.767-10.318-13.022-10.318H31.82c-5.262,0-10.056,3.104-12.212,7.907c-0.366,0.805-0.643,1.612-0.829,2.412
		c-0.022,0.095-0.048,0.188-0.08,0.28L6.165,93.167c-0.541,1.571,0.32,3.286,1.915,3.84c0.285,0.095,0.61,0.148,0.937,0.148
		c1.304,0,2.46-0.835,2.878-2.077L23.46,60.871c0.412-1.219,1.555-2.039,2.842-2.039h1.975c0.967,0,1.874,0.466,2.438,1.251
		c0.563,0.786,0.714,1.794,0.404,2.71l-18.283,54.074h13.951c1.657,0,3,1.343,3,3v49.362c0,2.419,1.972,4.387,4.395,4.387
		c2.414,0,4.378-1.968,4.378-4.387v-49.362C38.561,118.21,39.904,116.867,41.561,116.867z"/>
</g>
</svg>
