<?xml version="1.0" encoding="utf-8"?>
<!-- Generator: Adobe Illustrator 17.0.2, SVG Export Plug-In . SVG Version: 6.00 Build 0)  -->
<!DOCTYPE svg PUBLIC "-//W3C//DTD SVG 1.1//EN" "http://www.w3.org/Graphics/SVG/1.1/DTD/svg11.dtd">
<svg version="1.1" id="Calque_1" xmlns="http://www.w3.org/2000/svg" xmlns:xlink="http://www.w3.org/1999/xlink" x="0px" y="0px"
	 width="77.034px" height="151.975px" viewBox="0 0 77.034 151.975" enable-background="new 0 0 77.034 151.975"
	 xml:space="preserve">
<path fill="#23A2C5" d="M38.134,0c8.209,0,14.874,6.678,14.874,14.89s-6.665,14.874-14.874,14.874
	c-8.234,0-14.89-6.661-14.89-14.874S29.9,0,38.134,0z"/>
<path fill="#23A2C5" d="M72.557,86.665c-3.164,1.058-6.576-0.635-7.642-3.808L54.6,52.156h-1.983l17.292,51.227l-15.793,0.016
	v41.155c0,4.089-3.314,7.386-7.387,7.386c-4.081,0-7.395-3.297-7.395-7.386v-41.155h-1.939v41.155c0,4.089-3.297,7.386-7.378,7.386
	c-4.081,0-7.396-3.297-7.396-7.386v-41.155l-15.851,0.048l17.341-51.29h-1.974L11.738,82.857c-1.067,3.173-4.487,4.865-7.642,3.808
	c-3.147-1.093-4.848-4.513-3.772-7.634l11.368-33.627c0.238-1.022,0.582-2.009,1.014-2.961c2.565-5.712,8.285-9.678,14.949-9.678
	h21.437c7.757,0,14.262,5.394,15.945,12.64L76.33,79.031C77.405,82.152,75.703,85.572,72.557,86.665z"/>
</svg>
