<?xml version="1.0" encoding="utf-8"?>
<!-- Generator: Adobe Illustrator 16.0.4, SVG Export Plug-In . SVG Version: 6.00 Build 0)  -->
<!DOCTYPE svg PUBLIC "-//W3C//DTD SVG 1.1//EN" "http://www.w3.org/Graphics/SVG/1.1/DTD/svg11.dtd">
<svg version="1.1" id="Layer_1" xmlns="http://www.w3.org/2000/svg" xmlns:xlink="http://www.w3.org/1999/xlink" x="0px" y="0px"
	 width="500px" height="500px" viewBox="0 0 500 500" enable-background="new 0 0 500 500" xml:space="preserve">
<g>
	<g>
		<path fill="#FFFFFF" d="M278.8,500c-60.7,0-115.1-33.9-141.9-88.4l-0.4-0.9L65.8,238.8c-3.6-8.7-3.5-18.3,0.1-26.9
			c3.6-8.7,10.4-15.4,19.1-19c4.3-1.8,8.8-2.7,13.3-2.7c14.3,0,27.1,8.6,32.6,21.9l27.7,65.4V35.2c0-19.4,15.8-35.2,35.2-35.2
			C213.2,0,229,15.8,229,35.2v132.6c3.8-15.3,17.7-26.6,34.1-26.6c19.4,0,35.2,15.8,35.2,35.2v26.6c3.9-15.2,17.7-26.5,34.1-26.5
			c19.4,0,35.2,15.8,35.2,35.2V240c3.8-15.3,17.7-26.6,34.1-26.6c19.4,0,35.2,15.8,35.2,35.2v108.2h-0.7
			C428.7,437,361,500,278.8,500z"/>
	</g>
</g>
</svg>
