<?xml version="1.0" encoding="utf-8"?>
<!-- Generator: Adobe Illustrator 16.0.4, SVG Export Plug-In . SVG Version: 6.00 Build 0)  -->
<!DOCTYPE svg PUBLIC "-//W3C//DTD SVG 1.1//EN" "http://www.w3.org/Graphics/SVG/1.1/DTD/svg11.dtd">
<svg version="1.1" id="Layer_1" xmlns="http://www.w3.org/2000/svg" xmlns:xlink="http://www.w3.org/1999/xlink" x="0px" y="0px"
	 width="240px" height="240px" viewBox="0 0 240 240" enable-background="new 0 0 240 240" xml:space="preserve">
<g>
	<path fill="#ACCD6C" d="M12.9,117.1c0-58.3,47.2-105.5,105.5-105.5v105.5H12.9z"/>
	<path fill="#7EC7EE" d="M12.9,120.9c0,58.3,47.2,105.5,105.5,105.5V120.9H12.9z"/>
	<path fill="#EBBA65" d="M227.6,117.1c0-58.3-47.2-105.5-105.5-105.5v105.5H227.6z"/>
	<path fill="#DC846B" d="M227.6,120.9c0,58.3-47.2,105.5-105.5,105.5V120.9H227.6z"/>
</g>
<g>
	<path fill="#FFFDFD" d="M6.9,160.8l5.5-1.8l0,0l-4.9-1.2l3.3-3.9l0,0l-5.5,1.8l-0.5-1.5l8.2-2.7l0.5,1.5l-3.4,4l5.1,1.2l0.5,1.5
		l-8.2,2.7L6.9,160.8z"/>
</g>
<g>
	<path fill="#FFFDFD" d="M8.3,164.4l8-3.2l0.6,1.5l-8,3.2L8.3,164.4z"/>
</g>
<g>
	<path fill="#FFFDFD" d="M11.4,171.6l-1.7-3.8l7.9-3.5l0.7,1.5l-6.5,2.9l1.1,2.6L11.4,171.6z"/>
</g>
<g>
	<path fill="#FFFDFD" d="M13.9,176.7l2-3.9l0,0l-3.2,1.6l-0.7-1.4l7.7-4l0.7,1.4l-3,1.6l0,0l4.2,0.6l0.9,1.7l-5.1-0.8l-2.4,5
		L13.9,176.7z"/>
</g>
<g>
	<path fill="#FFFDFD" d="M19.9,186.7l0.2-0.5c-0.7-0.3-1.3-0.8-1.8-1.6c-0.9-1.4-0.7-3.1,0.7-4c1-0.7,2-0.4,2.9,0.1
		c0.1-0.4,0.3-0.9,1-1.4c0.9-0.6,2-0.3,2.6,0.7s0.4,2.1-0.5,2.7c-0.8,0.5-1.6,0.2-2.4-0.2l-0.8,2.5c0.5-0.1,1.1-0.3,1.6-0.8l0.7,1.1
		c-0.9,0.8-1.9,1.2-2.8,1.2l-0.5,1.7L19.9,186.7z M21.4,181.9c-0.6-0.3-1.1-0.4-1.7-0.1c-0.8,0.5-0.8,1.4-0.4,2.1
		c0.3,0.4,0.6,0.8,1.1,0.9L21.4,181.9z M24.6,180.6c-0.3-0.4-0.6-0.5-1-0.2c-0.3,0.2-0.4,0.5-0.6,0.9c0.5,0.3,1,0.5,1.3,0.3
		C24.7,181.3,24.8,181,24.6,180.6z"/>
</g>
<g>
	<path fill="#FFFDFD" d="M26.4,195.7l1.2-1.6l-1.7-2.2l-1.9,0.7l-1.1-1.4l8.6-3l1,1.3l-5.1,7.6L26.4,195.7z M30.5,190L30.5,190
		l-3.3,1.3l1.2,1.5L30.5,190z"/>
</g>
<g>
	<path fill="#FFFDFD" d="M31.1,201.2l-2.8-3.2l6.5-5.7l1.1,1.2l-5.3,4.6l1.9,2.1L31.1,201.2z"/>
</g>
<g>
	<path fill="#FFFDFD" d="M38.8,198.9l-5.1,4.9l-1.1-1.2l5.1-4.9l-1.3-1.3l1.3-0.9l3.4,3.6l-1,1.2L38.8,198.9z"/>
</g>
<g>
	<path fill="#FFFDFD" d="M39.1,209.2l-3.3-3.1l5.9-6.3l3.2,3.1l-0.9,1.3l-2.2-2.1l-1.3,1.4l2,1.9l-1.1,1.1l-2-1.9l-1.4,1.5l2.3,2.2
		L39.1,209.2z"/>
</g>
<g>
	<path fill="#FFFDFD" d="M43.6,213.1l0.6-4.2l-0.1-0.1l-2.3,2.7l-1.2-1l5.6-6.6l2,1.7c1.1,0.9,1.5,2.5,0.5,3.7c-0.8,1-2.1,1-3,0.6
		l-0.5,4.5L43.6,213.1z M47.2,206.5l-0.6-0.5l-1.5,1.8l0.6,0.5c0.5,0.5,1.2,0.6,1.8-0.1C47.9,207.6,47.7,207,47.2,206.5z"/>
</g>
<g>
	<path fill="#FFFDFD" d="M50.7,218.5l0.3-6.9l0,0l-3.4,4.6l-1.3-1l5.1-7l1.3,0.9l-0.3,6.9l0,0l3.4-4.6l1.3,1l-5.1,7L50.7,218.5z"/>
</g>
<g>
	<path fill="#FFFDFD" d="M57.9,223.3l0.5-1.9l-2.4-1.5l-1.5,1.3l-1.5-0.9l7-5.8l1.4,0.9l-2.2,8.8L57.9,223.3z M59.9,216.6
		L59.9,216.6l-2.6,2.3l1.6,1L59.9,216.6z"/>
</g>
<g>
	<path fill="#FFFDFD" d="M65.9,219.7l-3.4,6.2l-1.4-0.8l3.4-6.2l-1.6-0.9l0.9-1.3l4.3,2.4l-0.6,1.4L65.9,219.7z"/>
</g>
<g>
	<path fill="#FFFDFD" d="M65.2,227.3l3.9-7.7l1.4,0.7l-3.9,7.7L65.2,227.3z"/>
</g>
<g>
	<path fill="#FFFDFD" d="M71.8,230.5l-1.5-0.7l1-9l1.6,0.7l-0.8,6.3l0,0l4.2-4.8l1.6,0.7L71.8,230.5z"/>
</g>
<g>
	<path fill="#FFFDFD" d="M79.8,233.7l-4.3-1.6l3.1-8.1l4.2,1.6l-0.3,1.5l-2.9-1.1l-0.7,1.8l2.5,1l-0.6,1.5l-2.5-1l-0.7,1.9l3,1.1
		L79.8,233.7z"/>
</g>
<g>
	<path fill="#FFFDFD" d="M83.9,235.3c-1.3-0.4-1.9-1.2-2.3-2.2l1.4-0.7c0.2,0.6,0.5,1.2,1.4,1.4c0.6,0.2,1.2,0,1.4-0.7
		c0.5-1.5-3-2.3-2.2-5c0.5-1.4,1.8-1.9,3.1-1.5c1,0.3,1.6,0.9,2,1.8l-1.2,0.8c-0.1-0.5-0.6-1-1.2-1.1c-0.5-0.2-1,0-1.1,0.6
		c-0.5,1.5,3.2,2.1,2.3,5C86.8,235.1,85.5,235.8,83.9,235.3z"/>
</g>
<g>
	<path fill="#FFFDFD" d="M161.3,233.5l-1.8-5.5l0,0l-1.2,4.9l-3.9-3.2l0,0l1.8,5.5l-1.5,0.5l-2.8-8.2l1.5-0.5l4,3.3l1.1-5.1l1.5-0.5
		l2.8,8.2L161.3,233.5z"/>
</g>
<g>
	<path fill="#FFFDFD" d="M169.1,230.3l-4.2,1.8l-3.4-8l4.1-1.7l0.8,1.3l-2.8,1.2l0.7,1.8l2.5-1l0.6,1.4l-2.5,1l0.8,1.9l2.9-1.2
		L169.1,230.3z"/>
</g>
<g>
	<path fill="#FFFDFD" d="M175.4,227.3l-1.4-1.5l-2.5,1.2l0.3,2l-1.6,0.8l-1.3-9l1.5-0.7l6.4,6.5L175.4,227.3z M170.7,222.2
		L170.7,222.2l0.6,3.4l1.7-0.9L170.7,222.2z"/>
</g>
<g>
	<path fill="#FFFDFD" d="M176.5,218.6l3.5,6.2l-1.4,0.8l-3.5-6.2l-1.6,0.9l-0.6-1.4l4.3-2.4l0.9,1.3L176.5,218.6z"/>
</g>
<g>
	<path fill="#FFFDFD" d="M189.6,218.7l-0.5-0.2c-0.3,0.7-0.8,1.3-1.5,1.8c-1.4,0.9-3.1,0.8-4-0.6c-0.7-1-0.5-2,0-2.9
		c-0.4-0.1-0.9-0.3-1.4-1c-0.6-0.9-0.3-2,0.7-2.7c1-0.7,2.1-0.5,2.7,0.4c0.5,0.8,0.3,1.6-0.1,2.4l2.5,0.7c-0.1-0.5-0.4-1.1-0.9-1.6
		l1.1-0.7c0.8,0.9,1.2,1.8,1.2,2.7l1.7,0.5L189.6,218.7z M183.3,214.2c-0.4,0.3-0.4,0.6-0.2,1c0.2,0.3,0.6,0.4,1,0.5
		c0.3-0.5,0.5-1,0.2-1.3C184.1,214,183.7,213.9,183.3,214.2z M184.7,217.3c-0.3,0.6-0.4,1.2,0,1.7c0.5,0.8,1.4,0.8,2.1,0.3
		c0.4-0.3,0.7-0.7,0.9-1.1L184.7,217.3z"/>
</g>
<g>
	<path fill="#FFFDFD" d="M198.4,211.9l-1.7-1.1l-2.2,1.8l0.8,1.8l-1.3,1.1l-3.3-8.5l1.3-1.1l7.7,4.8L198.4,211.9z M192.6,207.9
		L192.6,207.9l1.4,3.2l1.5-1.2L192.6,207.9z"/>
</g>
<g>
	<path fill="#FFFDFD" d="M203.7,207l-3.1,2.9l-5.9-6.3l1.2-1.1l4.8,5.2l2.1-1.9L203.7,207z"/>
</g>
<g>
	<path fill="#FFFDFD" d="M201.3,199.4l5,5l-1.1,1.2l-5-5l-1.3,1.3l-1-1.2l3.5-3.5l1.2,1L201.3,199.4z"/>
</g>
<g>
	<path fill="#FFFDFD" d="M211.5,198.7l-3,3.4l-6.4-5.8l3-3.3l1.3,0.9l-2,2.3l1.4,1.3l1.8-2l1.2,1l-1.8,2l1.5,1.4l2.1-2.4
		L211.5,198.7z"/>
</g>
<g>
	<path fill="#FFFDFD" d="M215.3,194.1l-4.2-0.5l-0.1,0.1l2.8,2.2l-1,1.3l-6.8-5.4l1.6-2.1c0.9-1.1,2.5-1.6,3.7-0.6
		c1,0.8,1.1,2.1,0.7,3l4.5,0.3L215.3,194.1z M208.6,190.8l-0.5,0.6l1.9,1.5l0.5-0.6c0.4-0.6,0.5-1.3-0.1-1.8
		C209.7,190,209,190.2,208.6,190.8z"/>
</g>
<g>
	<path fill="#FFFDFD" d="M220.5,186.9l-6.9-0.1l0,0l4.7,3.3l-0.9,1.3l-7.1-4.9l0.9-1.3l6.9,0.1l0,0l-4.7-3.3l0.9-1.3l7.1,4.9
		L220.5,186.9z"/>
</g>
<g>
	<path fill="#FFFDFD" d="M225,179.5l-1.9-0.5l-1.4,2.4l1.4,1.5l-0.9,1.5l-6-6.9l0.9-1.4l8.9,1.9L225,179.5z M218.2,177.8
		L218.2,177.8l2.4,2.5l1-1.7L218.2,177.8z"/>
</g>
<g>
	<path fill="#FFFDFD" d="M221.2,171.7l6.3,3.3l-0.7,1.4l-6.3-3.3l-0.9,1.6l-1.3-0.9l2.3-4.4l1.5,0.6L221.2,171.7z"/>
</g>
<g>
	<path fill="#FFFDFD" d="M228.8,172.1l-7.8-3.7l0.7-1.5l7.8,3.7L228.8,172.1z"/>
</g>
<g>
	<path fill="#FFFDFD" d="M231.8,165.4l-0.6,1.6l-9-0.7l0.7-1.6l6.4,0.6l0,0l-5-4l0.7-1.6L231.8,165.4z"/>
</g>
<g>
	<path fill="#FFFDFD" d="M234.7,157.3l-1.5,4.3l-8.2-2.8l1.4-4.2l1.6,0.3l-1,2.9l1.8,0.6l0.9-2.6l1.5,0.5l-0.9,2.6l1.9,0.7l1-3
		L234.7,157.3z"/>
</g>
<g>
	<g>
		<path fill="#FFFDFD" d="M236.2,153.2c-0.4,1.3-1.2,1.9-2.2,2.4l-0.7-1.3c0.5-0.2,1.1-0.5,1.4-1.5c0.2-0.6,0-1.2-0.7-1.4
			c-1.6-0.4-2.2,3.1-4.9,2.4c-1.5-0.4-2-1.7-1.6-3c0.3-1,0.8-1.6,1.7-2l0.8,1.2c-0.5,0.2-0.9,0.7-1.1,1.2c-0.1,0.5,0.1,1,0.7,1.1
			c1.6,0.4,2-3.2,4.9-2.4C235.9,150.3,236.7,151.6,236.2,153.2z"/>
	</g>
	<g>
		<path fill="#FFFDFD" d="M12.9,87.8l-0.4,1.6l-9.1,0.4l0.5-1.7l6.4-0.2l0,0l-5.4-3.4l0.5-1.7L12.9,87.8z"/>
	</g>
</g>
<g>
	<path fill="#FFFDFD" d="M15.4,80.1l-1.5,4.3l-8.2-2.8l1.4-4.2l1.6,0.3l-1,2.9l1.8,0.6l0.9-2.6l1.5,0.5L11,81.7l1.9,0.7l1-3
		L15.4,80.1z"/>
</g>
<g>
	<path fill="#FFFDFD" d="M17.5,75.3c-0.9,2.2-3.5,3.2-5.9,2.2c-2.4-1-3.4-3.6-2.5-5.7C9.9,70,11,69.2,12.1,69l0.6,1.4
		c-0.9,0.2-1.6,0.7-2.1,1.9c-0.6,1.5,0.2,3,1.7,3.6c1.5,0.6,3.2,0.2,3.8-1.3c0.3-0.8,0.4-1.8,0.1-2.6l-1.2-0.5L14.3,73l-1.2-0.8
		l1.1-2.7l2.9,1.2C17.9,72,18.4,73.3,17.5,75.3z"/>
</g>
<g>
	<path fill="#FFFDFD" d="M21.6,66.1l-2.1,4.1l-7.7-3.9l2-4l1.5,0.5l-1.4,2.7l1.7,0.9l1.2-2.4l1.4,0.7L17,67.1l1.8,0.9l1.4-2.8
		L21.6,66.1z"/>
</g>
<g>
	<path fill="#FFFDFD" d="M17.5,58.9l6.1,3.5l-0.8,1.4l-6.1-3.5l-0.9,1.6L14.6,61l2.5-4.3l1.4,0.6L17.5,58.9z"/>
</g>
<g>
	<path fill="#FFFDFD" d="M27.4,56.4l-1.9-0.6L24,58.2l1.3,1.5l-0.9,1.5L18.7,54l0.9-1.4l8.8,2.3L27.4,56.4z M20.7,54.4L20.7,54.4
		L23,57l1.1-1.6L20.7,54.4z"/>
</g>
<g>
	<path fill="#FFFDFD" d="M30.6,51.9l-1.7,2.3l-6.9-5.1l1.6-2.1c0.9-1.2,2.3-1.6,3.3-0.8c0.8,0.6,1.1,1.4,0.9,2
		c0.5-0.3,1.5-0.7,2.5,0.1C31.4,49.1,31.5,50.7,30.6,51.9z M24.5,47.9L24,48.6l1.6,1.2l0.5-0.7c0.4-0.5,0.5-1.1-0.1-1.6
		C25.5,47.1,24.9,47.4,24.5,47.9z M27.3,49.8l-0.6,0.8l1.9,1.4l0.6-0.8c0.5-0.7,0.4-1.3-0.2-1.8C28.5,49.1,27.8,49.2,27.3,49.8z"/>
</g>
<g>
	<path fill="#FFFDFD" d="M35.7,45.5L33,48.7l-6.7-5.5l1-1.2l5.5,4.5l1.8-2.2L35.7,45.5z"/>
</g>
<g>
	<path fill="#FFFDFD" d="M39.5,41.3l-3.1,3.4L30,38.9l3-3.3l1.3,0.9l-2.1,2.3l1.4,1.3l1.8-2l1.1,1.1l-1.8,2l1.5,1.4l2.1-2.3
		L39.5,41.3z"/>
</g>
<g>
	<path fill="#FFFDFD" d="M42.4,38.8c-1,1-2,1.1-3.1,1l0-1.5c0.6,0.1,1.3,0.1,1.9-0.6c0.4-0.4,0.6-1.1,0.1-1.6
		c-1.1-1.2-3.5,1.6-5.4-0.4c-1.1-1.1-0.9-2.5,0.1-3.4c0.8-0.8,1.5-1,2.5-0.9l0.1,1.4c-0.5-0.1-1.1,0.1-1.6,0.5
		c-0.4,0.4-0.4,0.9,0,1.3c1.1,1.2,3.4-1.8,5.5,0.4C43.6,36.1,43.6,37.6,42.4,38.8z"/>
</g>
<g>
	<path fill="#FFFDFD" d="M51,30.8l-0.5-0.1c-0.2,0.7-0.7,1.4-1.4,2c-1.3,1.1-3,1.1-4.1-0.2c-0.8-0.9-0.6-1.9-0.3-2.8
		c-0.4-0.1-1-0.2-1.5-0.8c-0.7-0.8-0.5-2,0.4-2.7c0.9-0.8,2.1-0.7,2.7,0.1c0.6,0.7,0.4,1.6,0.1,2.4l2.6,0.5c-0.1-0.5-0.5-1-1-1.5
		l1-0.8c0.9,0.8,1.4,1.7,1.5,2.6l1.7,0.3L51,30.8z M44.4,26.9c-0.4,0.3-0.4,0.7-0.1,1c0.2,0.3,0.6,0.4,1,0.4c0.3-0.5,0.4-1,0.1-1.4
		C45.1,26.7,44.7,26.6,44.4,26.9z M46,29.9c-0.2,0.6-0.3,1.2,0.1,1.7c0.6,0.7,1.5,0.7,2.1,0.1c0.4-0.3,0.7-0.7,0.8-1.2L46,29.9z"/>
</g>
<g>
	<path fill="#FFFDFD" d="M52.6,20.8l1.1,1.6l2.2-1.5l0.9,1.3l-2.2,1.5l2,3l-1.3,0.9l-4.9-7.1l3.7-2.5l1.1,1.1L52.6,20.8z"/>
</g>
<g>
	<path fill="#FFFDFD" d="M63.4,22.3l-3.8-1.9l-0.1,0.1l1.9,3.1L60,24.4L55.5,17l2.3-1.4c1.2-0.8,2.9-0.6,3.7,0.7
		c0.7,1.1,0.3,2.3-0.4,3l4.1,1.9L63.4,22.3z M58.2,16.9l-0.7,0.4l1.2,2l0.7-0.4c0.6-0.4,0.9-1,0.5-1.7S58.8,16.5,58.2,16.9z"/>
</g>
<g>
	<path fill="#FFFDFD" d="M68.8,19.6c-1.7,0.9-3.5,0.6-4.6-1.4l-2.6-4.9l1.4-0.7l2.6,4.9c0.6,1.1,1.6,1.3,2.5,0.8s1.3-1.4,0.7-2.5
		l-2.6-4.9l1.4-0.7l2.6,4.9C71.3,17.1,70.5,18.7,68.8,19.6z"/>
</g>
<g>
	<path fill="#FFFDFD" d="M73.2,17.1l-3.6-7.9l1.5-0.7l3.6,7.9L73.2,17.1z"/>
</g>
<g>
	<path fill="#FFFDFD" d="M76,8.2l2.7,6.5l-1.5,0.6l-2.7-6.5l-1.7,0.7L72.4,8L77,6.1l0.8,1.4L76,8.2z"/>
</g>
<g>
	<path fill="#FFFDFD" d="M164,15.9c-2.2-0.9-3.2-3.5-2.2-5.9c1-2.4,3.6-3.4,5.8-2.5c1.8,0.8,2.5,1.9,2.7,3l-1.4,0.6
		c-0.2-0.9-0.7-1.6-1.9-2.1c-1.5-0.6-3,0.2-3.7,1.7c-0.6,1.5-0.2,3.2,1.3,3.8c0.8,0.3,1.7,0.5,2.6,0.1l0.5-1.2l-1.4-0.6l0.8-1.2
		l2.7,1.2l-1.2,2.9C167.2,16.4,166,16.8,164,15.9z"/>
</g>
<g>
	<path fill="#FFFDFD" d="M172.5,19.8l-0.3-4.2l-0.1-0.1l-1.6,3.2l-1.4-0.7l4-7.7l2.3,1.2c1.3,0.7,2,2.1,1.3,3.5
		c-0.6,1.2-1.8,1.5-2.8,1.3l0.5,4.5L172.5,19.8z M174.5,12.5l-0.7-0.4l-1.1,2.1l0.7,0.4c0.6,0.3,1.3,0.3,1.7-0.5
		C175.5,13.5,175.1,12.9,174.5,12.5z"/>
</g>
<g>
	<path fill="#FFFDFD" d="M179.6,23.8l0.5-1.9l-2.4-1.5l-1.5,1.3l-1.5-0.9l6.9-5.9l1.4,0.9l-2,8.9L179.6,23.8z M181.4,17.1
		L181.4,17.1l-2.6,2.4l1.7,1L181.4,17.1z"/>
</g>
<g>
	<path fill="#FFFDFD" d="M181.8,25.3l4.8-7.2l1.3,0.9l-4.8,7.2L181.8,25.3z"/>
</g>
<g>
	<path fill="#FFFDFD" d="M188.9,30.4l0.4-6.9l0,0l-3.5,4.6l-1.3-1l5.2-6.9l1.2,0.9l-0.4,6.9l0,0l3.5-4.6l1.3,1l-5.2,6.9L188.9,30.4z
		"/>
</g>
<g>
	<path fill="#FFFDFD" d="M197.8,33.5l-0.8-0.7l-2.3,2.5l-1.2-1.1l5.8-6.4l2,1.8c1.1,1,1.3,2.7,0.3,3.8
		C200.6,34.6,198.9,34.5,197.8,33.5z M200.3,30.5l-0.6-0.5l-1.8,2l0.6,0.5c0.5,0.5,1.3,0.5,1.9-0.1C201,31.7,200.8,30.9,200.3,30.5z
		"/>
</g>
<g>
	<path fill="#FFFDFD" d="M201,41.3l1-4.1l-0.1-0.1l-2.6,2.5l-1.1-1.2l6.2-6l1.8,1.9c1,1,1.2,2.6,0.1,3.7c-0.9,0.9-2.2,0.8-3.1,0.3
		l-0.9,4.4L201,41.3z M205.1,35.1l-0.5-0.6l-1.7,1.7l0.5,0.6c0.5,0.5,1.2,0.7,1.8,0.1C205.8,36.3,205.7,35.6,205.1,35.1z"/>
</g>
<g>
	<path fill="#FFFDFD" d="M205.3,46.5c-1.6-1.9-1.4-4.6,0.6-6.3c2.1-1.7,4.7-1.5,6.3,0.4c1.6,1.9,1.4,4.6-0.6,6.3
		C209.6,48.7,206.9,48.4,205.3,46.5z M211.1,41.6c-1-1.2-2.7-1.4-4.1-0.2s-1.5,2.9-0.5,4.1c1,1.2,2.7,1.4,4.1,0.2
		C212,44.5,212.1,42.8,211.1,41.6z"/>
</g>
<g>
	<path fill="#FFFDFD" d="M210.6,52.9l-1.6-2.2l7-5l1.5,2.1c1.2,1.7,1.4,4.3-1,6S211.8,54.5,210.6,52.9z M216.2,48.4l-0.4-0.5
		l-4.6,3.3l0.4,0.5c0.8,1.2,2.5,1.9,4,0.8S217,49.5,216.2,48.4z"/>
</g>
<g>
	<path fill="#FFFDFD" d="M215.3,60.3c-1-1.6-0.9-3.5,1.1-4.7l4.7-2.9l0.8,1.4l-4.7,2.9c-1,0.6-1.2,1.6-0.6,2.5
		c0.5,0.9,1.5,1.2,2.5,0.6l4.7-2.9l0.8,1.4l-4.7,2.9C218,62.6,216.3,61.9,215.3,60.3z"/>
</g>
<g>
	<path fill="#FFFDFD" d="M219.6,68.1c-1.2-2.4-0.3-4.8,2-6c2.3-1.2,4.9-0.4,6.1,1.9c0.5,1,0.6,2.2,0.3,3.1l-1.5-0.2
		c0.3-0.8,0.3-1.5-0.1-2.2c-0.8-1.6-2.5-1.9-4-1.1c-1.5,0.8-2.1,2.4-1.4,3.9c0.4,0.8,1,1.2,1.8,1.4l-0.6,1.4
		C221.1,70,220.2,69.1,219.6,68.1z"/>
</g>
<g>
	<path fill="#FFFDFD" d="M229.3,71.5l-6.5,2.8l-0.7-1.5l6.5-2.8l-0.7-1.7l1.5-0.5l2,4.6l-1.4,0.8L229.3,71.5z"/>
</g>
<g>
	<path fill="#FFFDFD" d="M224.5,79.1c-0.5-1.3-0.2-2.2,0.3-3.2l1.4,0.6c-0.3,0.5-0.6,1.1-0.3,2c0.2,0.6,0.7,0.9,1.4,0.7
		c1.5-0.6-0.1-3.8,2.5-4.8c1.4-0.5,2.6,0.2,3.1,1.5c0.4,1,0.3,1.8-0.2,2.6l-1.3-0.5c0.3-0.5,0.4-1.1,0.1-1.7
		c-0.2-0.5-0.6-0.7-1.2-0.5c-1.5,0.6,0.3,3.8-2.5,4.9C226.5,81.3,225.1,80.7,224.5,79.1z"/>
</g>
</svg>
